<svg width="199" height="219" viewBox="0 0 199 219" fill="none" xmlns="http://www.w3.org/2000/svg">
<path d="M81.4874 148.701C85.6396 145.564 89.3205 141.959 92.4384 137.976C94.9768 134.674 96.982 131.068 98.3946 127.265C99.6498 123.792 100.429 120.195 100.716 116.554C100.989 113.028 100.989 109.489 100.716 105.963C100.468 102.444 100.15 98.9506 99.819 95.5659C99.4878 92.1812 99.3047 88.6736 99.3047 85.2721C99.2982 81.8668 99.7109 78.4712 100.535 75.1469C101.391 71.6723 102.844 68.3378 104.844 65.263C107.211 61.6545 110.176 58.3885 113.638 55.5766C109.128 58.7107 105.075 62.339 101.575 66.3767C98.8155 69.5827 96.6349 73.1562 95.1123 76.9671C93.7607 80.3932 92.924 83.9651 92.6242 87.5888C92.3077 91.2163 92.2412 94.8578 92.425 98.4926C92.5686 102.147 92.7122 105.915 92.8558 109.797C92.9679 113.804 92.779 117.814 92.2903 121.8C91.7457 126.191 90.6778 130.518 89.1049 134.707C87.1958 139.61 84.6662 144.301 81.5655 148.689" fill="#45B8B5"/>
<path d="M82.3491 189.076C89.7301 183.87 96.336 177.839 102.005 171.13C106.621 165.57 110.337 159.455 113.045 152.965C115.462 147.015 117.067 140.825 117.825 134.53C118.548 128.458 118.809 122.349 118.606 116.245C118.405 110.165 118.128 104.12 117.776 98.1089C117.429 92.0821 117.378 86.2264 117.593 80.284C117.82 74.4046 118.772 68.5657 120.431 62.8736C122.149 56.9098 124.893 51.2217 128.563 46.0129C132.867 39.9544 138.163 34.5095 144.275 29.8609C136.277 35.0307 129.031 41.0737 122.704 47.8499C117.722 53.2503 113.713 59.315 110.824 65.8243C108.284 71.6689 106.611 77.7865 105.848 84.0206C105.049 90.2728 104.678 96.5629 104.736 102.856V122.433C104.673 129.395 104.069 136.344 102.926 143.231C101.679 150.793 99.5269 158.213 96.5071 165.364C92.8679 173.739 88.1701 181.713 82.5052 189.131" fill="#45B8B5"/>
<path d="M45.6023 117.73C52.9081 111.488 60.7887 105.808 69.1604 100.751C62.6065 106.055 57.1808 110.481 55.8048 113.275C54.4289 116.069 56.7499 117.345 62.3076 117.345C72.9759 117.345 96.6363 112.504 104.418 110.927C122.07 107.096 139.226 101.62 155.603 94.5872C147.155 98.8615 138.32 102.49 129.191 105.435C116.298 109.919 100.11 114.929 84.9878 118.952C69.8659 122.976 55.9852 125.992 48.3031 126.291C40.6209 126.59 38.9622 124.138 45.6104 117.735C48.3569 114.996 43.8252 119.497 45.6023 117.73Z" fill="#191919"/>
<path d="M69.8578 100.884C77.164 94.6412 85.0455 88.9614 93.4186 83.9052C86.7812 89.1944 81.4389 93.6204 80.0441 96.4289C78.6493 99.2375 81.0054 100.498 86.5469 100.498C97.2314 100.498 120.889 95.6576 128.655 94.0665C146.316 90.246 163.477 84.769 179.856 77.7264C171.408 82.0011 162.573 85.6301 153.443 88.5748C140.551 93.0587 124.363 98.0682 109.243 102.092C94.124 106.115 80.2407 109.131 72.5585 109.413C64.8764 109.695 63.1692 107.306 69.8659 100.86C72.6285 98.1502 68.0995 102.654 69.8578 100.884Z" fill="#191919"/>
</svg>
